<?xml version="1.0" encoding="utf-8"?>
<svg version="1.1" xmlns:xlink="http://www.w3.org/1999/xlink" width="25px" height="14px" xmlns="http://www.w3.org/2000/svg">
  <g transform="matrix(1 0 0 1 -705 -1666 )">
    <path d="M 16.5364583333333 8.19318181818182  C 16.6232638888889 8.11363636363636  16.6666666666667 8.03409090909091  16.6666666666667 7.95454545454545  C 16.6666666666667 7.86174242424242  16.6276041666667 7.78551136363636  16.5494791666667 7.72585227272727  C 16.4713541666667 7.66619318181818  16.3715277777778 7.63636363636364  16.25 7.63636363636364  L 13.3333333333333 7.63636363636364  L 13.3333333333333 4.13636363636364  C 13.3333333333333 4.05018939393939  13.2921006944444 3.97561553030303  13.2096354166667 3.91264204545455  C 13.1271701388889 3.84966856060606  13.0295138888889 3.81818181818182  12.9166666666667 3.81818181818182  L 10.4166666666667 3.81818181818182  C 10.3038194444444 3.81818181818182  10.2061631944444 3.84966856060606  10.1236979166667 3.91264204545455  C 10.0412326388889 3.97561553030303  10 4.05018939393939  10 4.13636363636364  L 10 7.63636363636364  L 7.08333333333333 7.63636363636364  C 6.97048611111111 7.63636363636364  6.87282986111111 7.66785037878788  6.79036458333333 7.73082386363636  C 6.70789930555556 7.79379734848485  6.66666666666667 7.86837121212121  6.66666666666667 7.95454545454545  C 6.66666666666667 8.04734848484848  6.70572916666667 8.12357954545455  6.78385416666667 8.18323863636364  L 11.3671875 11.6832386363636  C 11.4453125 11.7428977272727  11.5451388888889 11.7727272727273  11.6666666666667 11.7727272727273  C 11.7881944444444 11.7727272727273  11.8880208333333 11.7428977272727  11.9661458333333 11.6832386363636  L 16.5364583333333 8.19318181818182  Z M 23.9127604166667 7.81036931818182  C 24.6375868055556 8.50307765151515  25 9.2935606060606  25 10.1818181818182  C 25 11.2357954545455  24.51171875 12.1356534090909  23.53515625 12.8813920454545  C 22.55859375 13.6271306818182  21.3802083333333 14  20 14  L 5.83333333333333 14  C 4.22743055555556 14  2.85373263888889 13.5641571969697  1.71223958333333 12.6924715909091  C 0.570746527777778 11.8207859848485  0 10.7717803030303  0 9.54545454545455  C 0 8.68371212121212  0.303819444444444 7.88825757575758  0.911458333333333 7.15909090909091  C 1.51909722222222 6.42992424242424  2.33506944444444 5.88304924242424  3.359375 5.51846590909091  C 3.34201388888889 5.31960227272727  3.33333333333333 5.17708333333333  3.33333333333333 5.09090909090909  C 3.33333333333333 3.68560606060606  3.984375 2.48579545454546  5.28645833333333 1.49147727272727  C 6.58854166666667 0.497159090909091  8.15972222222222 0  10 0  C 11.3541666666667 0  12.5933159722222 0.288352272727273  13.7174479166667 0.865056818181818  C 14.8415798611111 1.44176136363636  15.6597222222222 2.20738636363636  16.171875 3.16193181818182  C 16.7881944444444 2.75094696969697  17.5086805555556 2.54545454545455  18.3333333333333 2.54545454545455  C 19.2534722222222 2.54545454545455  20.0390625 2.79403409090909  20.6901041666667 3.29119318181818  C 21.3411458333333 3.78835227272727  21.6666666666667 4.38825757575757  21.6666666666667 5.09090909090909  C 21.6666666666667 5.59469696969697  21.4887152777778 6.05208333333333  21.1328125 6.46306818181818  C 22.2612847222222 6.66856060606061  23.1879340277778 7.11766098484848  23.9127604166667 7.81036931818182  Z " fill-rule="nonzero" fill="#ffffff" stroke="none" transform="matrix(1 0 0 1 705 1666 )" />
  </g>
</svg>