<?xml version="1.0" encoding="utf-8"?>
<svg version="1.1" xmlns:xlink="http://www.w3.org/1999/xlink" width="24px" height="14px" xmlns="http://www.w3.org/2000/svg">
  <g transform="matrix(1 0 0 1 -706 -1718 )">
    <path d="M 15.88125 7.54190340909091  C 15.9604166666667 7.47892992424242  16 7.40435606060606  16 7.31818181818182  C 16 7.22537878787879  15.9625 7.14914772727273  15.8875 7.08948863636364  L 11.4875 3.58948863636364  C 11.4125 3.52982954545455  11.3166666666667 3.5  11.2 3.5  C 11.0833333333333 3.5  10.9875 3.52982954545455  10.9125 3.58948863636364  L 6.525 7.07954545454545  C 6.44166666666667 7.15909090909091  6.4 7.23863636363636  6.4 7.31818181818182  C 6.4 7.41098484848485  6.4375 7.48721590909091  6.5125 7.546875  C 6.5875 7.60653409090909  6.68333333333334 7.63636363636364  6.8 7.63636363636364  L 9.6 7.63636363636364  L 9.6 11.1363636363636  C 9.6 11.2225378787879  9.63958333333333 11.2971117424242  9.71875 11.3600852272727  C 9.79791666666667 11.4230587121212  9.89166666666667 11.4545454545455  10 11.4545454545455  L 12.4 11.4545454545455  C 12.5083333333333 11.4545454545455  12.6020833333333 11.4230587121212  12.68125 11.3600852272727  C 12.7604166666667 11.2971117424242  12.8 11.2225378787879  12.8 11.1363636363636  L 12.8 7.63636363636364  L 15.6 7.63636363636364  C 15.7083333333333 7.63636363636364  15.8020833333333 7.60487689393939  15.88125 7.54190340909091  Z M 22.95625 7.81036931818182  C 23.6520833333333 8.50307765151515  24 9.2935606060606  24 10.1818181818182  C 24 11.2357954545455  23.53125 12.1356534090909  22.59375 12.8813920454545  C 21.65625 13.6271306818182  20.525 14  19.2 14  L 5.6 14  C 4.05833333333333 14  2.73958333333333 13.5641571969697  1.64375 12.6924715909091  C 0.547916666666667 11.8207859848485  0 10.7717803030303  0 9.54545454545455  C 0 8.68371212121212  0.291666666666667 7.88825757575758  0.875 7.15909090909091  C 1.45833333333333 6.42992424242424  2.24166666666667 5.88304924242424  3.225 5.51846590909091  C 3.20833333333333 5.31960227272727  3.2 5.17708333333333  3.2 5.09090909090909  C 3.2 3.68560606060606  3.825 2.48579545454546  5.075 1.49147727272727  C 6.325 0.497159090909091  7.83333333333333 0  9.6 0  C 10.9 0  12.0895833333333 0.288352272727273  13.16875 0.865056818181818  C 14.2479166666667 1.44176136363636  15.0333333333333 2.20738636363636  15.525 3.16193181818182  C 16.1166666666667 2.75094696969697  16.8083333333333 2.54545454545455  17.6 2.54545454545455  C 18.4833333333333 2.54545454545455  19.2375 2.79403409090909  19.8625 3.29119318181818  C 20.4875 3.78835227272727  20.8 4.38825757575757  20.8 5.09090909090909  C 20.8 5.59469696969697  20.6291666666667 6.05208333333333  20.2875 6.46306818181818  C 21.3708333333333 6.66856060606061  22.2604166666667 7.11766098484848  22.95625 7.81036931818182  Z " fill-rule="nonzero" fill="#ffffff" stroke="none" transform="matrix(1 0 0 1 706 1718 )" />
  </g>
</svg>